<svg xmlns="http://www.w3.org/2000/svg" viewBox="0 0 216.02 221.02"><path d="m0,0h216.02v221.02H0V0Z" fill="#c5412b"/><path d="M29.07 135.95l-.22-45.07s24.05 8.57 40.49 8.85l.27 28.89s-19.34 0-40.01 7.68m48.21-36.84l13.25-.27.27 29.42H78.35l-.53-29.15zm34.71 5.7l-8.55 9.13 9.1 9.23 8.43-9.55-8.98-8.81zM99.54 77.85l28.46-.13.27 13.77H99.95l-.4-13.63zm37.06 40.37l-20.25 20.12 9.93 9.66 19.06-19.38-8.73-10.4zM91.31 28.16l45.07-.22s-8.96 25.25-9.25 41.68l-27.43.13s-1.05-20.4-8.74-41.07m96.95 128.61l-31.63 32.11s-11.58-24.16-23.03-35.95l19.25-19.54s15.21 13.64 35.28 22.77"/></svg>